<svg class="main-svg" xmlns="http://www.w3.org/2000/svg" xmlns:xlink="http://www.w3.org/1999/xlink" width="700" height="500" style="" viewBox="0 0 700 500"><rect x="0" y="0" width="700" height="500" style="fill: rgb(255, 255, 255); fill-opacity: 1;"/><defs id="defs-267888"><g class="clips"><clipPath id="clip267888xyplot" class="plotclip"><rect width="535" height="320"/></clipPath><clipPath class="axesclip" id="clip267888x"><rect x="80" y="0" width="535" height="500"/></clipPath><clipPath class="axesclip" id="clip267888y"><rect x="0" y="100" width="700" height="320"/></clipPath><clipPath class="axesclip" id="clip267888xy"><rect x="80" y="100" width="535" height="320"/></clipPath></g><g class="gradients"/><g class="patterns"/></defs><g class="bglayer"/><g class="layer-below"><g class="imagelayer"/><g class="shapelayer"/></g><g class="cartesianlayer"><g class="subplot xy"><g class="layer-subplot"><g class="shapelayer"/><g class="imagelayer"/></g><g class="minor-gridlayer"><g class="x"/><g class="y"/></g><g class="gridlayer"><g class="x"><path class="xgrid crisp" transform="translate(193.82999999999998,0)" d="M0,100v320" style="stroke: rgb(255, 255, 255); stroke-opacity: 1; stroke-width: 1px;"/><path class="xgrid crisp" transform="translate(307.65999999999997,0)" d="M0,100v320" style="stroke: rgb(255, 255, 255); stroke-opacity: 1; stroke-width: 1px;"/><path class="xgrid crisp" transform="translate(421.49,0)" d="M0,100v320" style="stroke: rgb(255, 255, 255); stroke-opacity: 1; stroke-width: 1px;"/><path class="xgrid crisp" transform="translate(535.3199999999999,0)" d="M0,100v320" style="stroke: rgb(255, 255, 255); stroke-opacity: 1; stroke-width: 1px;"/></g><g class="y"><path class="ygrid crisp" transform="translate(0,332)" d="M80,0h535" style="stroke: rgb(255, 255, 255); stroke-opacity: 1; stroke-width: 1px;"/><path class="ygrid crisp" transform="translate(0,260)" d="M80,0h535" style="stroke: rgb(255, 255, 255); stroke-opacity: 1; stroke-width: 1px;"/><path class="ygrid crisp" transform="translate(0,188)" d="M80,0h535" style="stroke: rgb(255, 255, 255); stroke-opacity: 1; stroke-width: 1px;"/><path class="ygrid crisp" transform="translate(0,116)" d="M80,0h535" style="stroke: rgb(255, 255, 255); stroke-opacity: 1; stroke-width: 1px;"/></g></g><g class="zerolinelayer"><path class="yzl zl crisp" transform="translate(0,404)" d="M80,0h535" style="stroke: rgb(255, 255, 255); stroke-opacity: 1; stroke-width: 2px;"/></g><path class="xlines-below"/><path class="ylines-below"/><g class="overlines-below"/><g class="xaxislayer-below"/><g class="yaxislayer-below"/><g class="overaxes-below"/><g class="plot" transform="translate(80,100)" clip-path="url(#clip267888xyplot)"><g class="scatterlayer mlayer"><g class="trace scatter trace164a5b" style="stroke-miterlimit: 2; opacity: 1;"><g class="fills"/><g class="errorbars"/><g class="lines"><path class="js-line" d="M0,304L34.15,304L45.53,301.12L56.91,301.12L68.3,304L79.68,301.12L91.06,295.36L102.45,252.16L113.83,191.68L125.21,162.88L136.6,194.56L147.98,234.88L159.36,269.44L170.74,289.6L182.13,298.24L193.51,295.36L204.89,283.84L216.28,283.84L227.66,289.6L239.04,301.12L250.43,298.24L261.81,295.36L273.19,298.24L295.96,298.24L307.34,289.6L318.72,280.96L330.11,260.8L341.49,223.36L352.87,160L364.26,134.08L375.64,188.8L387.02,217.6L398.4,269.44L409.79,286.72L421.17,292.48L443.94,263.68L455.32,269.44L466.7,275.2L478.09,269.44L489.47,257.92L500.85,275.2L512.23,280.96L523.62,278.08L535,272.32" style="vector-effect: none; fill: none; stroke: rgb(99, 110, 250); stroke-opacity: 1; stroke-width: 2px; opacity: 1;"/></g><g class="points"/><g class="text"/></g><g class="trace scatter traceb6f1fb" style="stroke-miterlimit: 2; opacity: 1;"><g class="fills"/><g class="errorbars"/><g class="lines"><path class="js-line" d="M0,304L34.15,304L45.53,301.12L56.91,286.72L68.3,269.44L91.06,292.48L102.45,289.6L113.83,283.84L125.21,289.6L136.6,283.84L147.98,246.4L170.74,125.44L182.13,125.44L193.51,102.4L204.89,122.56L227.66,286.72L239.04,298.24L250.43,298.24L261.81,289.6L273.19,278.08L284.57,280.96L295.96,289.6L307.34,289.6L318.72,289.6L330.11,283.84L341.49,257.92L352.87,171.52L364.26,111.04L375.64,122.56L387.02,183.04L398.4,249.28L409.79,289.6L421.17,298.24L432.55,295.36L443.94,298.24L455.32,289.6L466.7,275.2L478.09,211.84L489.47,88L500.85,36.16L512.23,82.24L523.62,183.04L535,275.2" style="vector-effect: none; fill: none; stroke: rgb(239, 85, 59); stroke-opacity: 1; stroke-width: 2px; opacity: 1;"/></g><g class="points"/><g class="text"/></g><g class="trace scatter trace0baddd" style="stroke-miterlimit: 2; opacity: 1;"><g class="fills"/><g class="errorbars"/><g class="lines"><path class="js-line" d="M0,304L56.91,304L68.3,301.12L102.45,275.2L113.83,278.08L125.21,280.96L136.6,292.48L147.98,295.36L159.36,292.48L170.74,283.84L182.13,283.84L193.51,275.2L204.89,275.2L216.28,289.6L227.66,292.48L239.04,289.6L250.43,292.48L261.81,301.12L273.19,292.48L284.57,260.8L295.96,226.24L307.34,128.32L318.72,47.68L330.11,30.4L341.49,128.32L352.87,237.76L364.26,304L387.02,298.24L398.4,301.12L409.79,301.12L421.17,304L432.55,304L443.94,301.12L455.32,298.24L466.7,286.72L478.09,283.84L489.47,275.2L500.85,263.68L512.23,255.04L523.62,257.92L535,266.56" style="vector-effect: none; fill: none; stroke: rgb(0, 204, 150); stroke-opacity: 1; stroke-width: 2px; opacity: 1;"/></g><g class="points"/><g class="text"/></g><g class="trace scatter traced95ae1" style="stroke-miterlimit: 2; opacity: 1;"><g class="fills"/><g class="errorbars"/><g class="lines"><path class="js-line" d="M0,304L45.53,304L56.91,301.12L68.3,298.24L79.68,301.12L91.06,301.12L102.45,298.24L113.83,295.36L125.21,298.24L147.98,292.48L159.36,280.96L170.74,272.32L182.13,266.56L193.51,252.16L204.89,246.4L216.28,255.04L227.66,257.92L239.04,240.64L250.43,183.04L261.81,154.24L273.19,162.88L284.57,229.12L295.96,275.2L307.34,304L318.72,301.12L330.11,295.36L341.49,286.72L352.87,272.32L364.26,246.4L375.64,200.32L387.02,136.96L398.4,122.56L409.79,157.12L421.17,217.6L432.55,260.8L443.94,295.36L455.32,298.24L489.47,289.6L500.85,295.36L512.23,295.36L523.62,301.12L535,301.12" style="vector-effect: none; fill: none; stroke: rgb(171, 99, 250); stroke-opacity: 1; stroke-width: 2px; opacity: 1;"/></g><g class="points"/><g class="text"/></g><g class="trace scatter trace1b63ca" style="stroke-miterlimit: 2; opacity: 1;"><g class="fills"/><g class="errorbars"/><g class="lines"><path class="js-line" d="M0,304L11.38,304L22.77,301.12L34.15,292.48L45.53,278.08L56.91,237.76L68.3,177.28L79.68,90.88L91.06,18.88L102.45,16L113.83,122.56L125.21,220.48L136.6,286.72L147.98,298.24L159.36,298.24L170.74,298.24L182.13,295.36L193.51,283.84L204.89,263.68L216.28,257.92L227.66,260.8L239.04,237.76L250.43,180.16L261.81,79.36L273.19,36.16L284.57,113.92L295.96,237.76L307.34,283.84L318.72,298.24L330.11,298.24L341.49,295.36L352.87,298.24L364.26,298.24L375.64,283.84L387.02,234.88L398.4,162.88L409.79,113.92L421.17,151.36L432.55,206.08L443.94,246.4L455.32,280.96L466.7,286.72L478.09,280.96L489.47,292.48L500.85,292.48L523.62,292.48L535,298.24" style="vector-effect: none; fill: none; stroke: rgb(255, 161, 90); stroke-opacity: 1; stroke-width: 2px; opacity: 1;"/></g><g class="points"/><g class="text"/></g><g class="trace scatter trace8f7661" style="stroke-miterlimit: 2; opacity: 1;"><g class="fills"/><g class="errorbars"/><g class="lines"><path class="js-line" d="M0,304L56.91,304L68.3,301.12L79.68,295.36L91.06,292.48L113.83,292.48L125.21,278.08L136.6,272.32L147.98,249.28L182.13,283.84L193.51,232L204.89,157.12L216.28,119.68L227.66,160L239.04,214.72L250.43,257.92L261.81,292.48L273.19,301.12L284.57,298.24L295.96,298.24L307.34,301.12L330.11,289.6L341.49,289.6L352.87,295.36L364.26,298.24L375.64,286.72L387.02,257.92L398.4,232L409.79,200.32L421.17,197.44L432.55,211.84L443.94,260.8L455.32,286.72L466.7,295.36L478.09,295.36L489.47,286.72L500.85,260.8L512.23,217.6L523.62,194.56L535,194.56" style="vector-effect: none; fill: none; stroke: rgb(25, 211, 243); stroke-opacity: 1; stroke-width: 2px; opacity: 1;"/></g><g class="points"/><g class="text"/></g><g class="trace scatter trace9927e4" style="stroke-miterlimit: 2; opacity: 1;"><g class="fills"/><g class="errorbars"/><g class="lines"><path class="js-line" d="M0,304L22.77,304L34.15,298.24L45.53,295.36L56.91,286.72L68.3,272.32L79.68,252.16L91.06,260.8L102.45,266.56L113.83,280.96L125.21,283.84L136.6,275.2L147.98,280.96L159.36,286.72L170.74,295.36L182.13,295.36L193.51,283.84L204.89,263.68L216.28,266.56L227.66,272.32L239.04,292.48L261.81,286.72L273.19,278.08L284.57,275.2L295.96,266.56L307.34,266.56L318.72,278.08L330.11,286.72L341.49,286.72L364.26,252.16L375.64,237.76L387.02,220.48L398.4,171.52L409.79,90.88L421.17,108.16L432.55,208.96L443.94,269.44L455.32,292.48L466.7,295.36L478.09,298.24L489.47,295.36L500.85,286.72L512.23,289.6L523.62,286.72L535,278.08" style="vector-effect: none; fill: none; stroke: rgb(255, 102, 146); stroke-opacity: 1; stroke-width: 2px; opacity: 1;"/></g><g class="points"/><g class="text"/></g><g class="trace scatter trace7b5b70" style="stroke-miterlimit: 2; opacity: 1;"><g class="fills"/><g class="errorbars"/><g class="lines"><path class="js-line" d="M0,304L34.15,304L45.53,301.12L56.91,301.12L68.3,298.24L79.68,266.56L91.06,240.64L102.45,217.6L113.83,171.52L125.21,76.48L136.6,85.12L159.36,232L170.74,283.84L182.13,298.24L193.51,298.24L204.89,283.84L216.28,263.68L227.66,249.28L239.04,249.28L250.43,246.4L261.81,217.6L273.19,162.88L284.57,113.92L295.96,82.24L307.34,105.28L318.72,185.92L330.11,246.4L341.49,278.08L352.87,298.24L364.26,292.48L375.64,289.6L387.02,286.72L398.4,278.08L409.79,252.16L421.17,223.36L432.55,171.52L443.94,108.16L455.32,56.32L466.7,88L478.09,206.08L489.47,289.6L500.85,295.36L512.23,292.48L523.62,283.84L535,260.8" style="vector-effect: none; fill: none; stroke: rgb(182, 232, 128); stroke-opacity: 1; stroke-width: 2px; opacity: 1;"/></g><g class="points"/><g class="text"/></g></g></g><g class="overplot"/><path class="xlines-above crisp" d="M79,420.5H616M79,99.5H616" style="fill: none; stroke-width: 1px; stroke: rgb(0, 0, 0); stroke-opacity: 1;"/><path class="ylines-above crisp" d="M79.5,100V420M615.5,100V420" style="fill: none; stroke-width: 1px; stroke: rgb(0, 0, 0); stroke-opacity: 1;"/><g class="overlines-above"/><g class="xaxislayer-above"><g class="xtick"><text text-anchor="middle" x="0" y="435.4" transform="translate(80,0)" style="font-family: 'Open Sans', verdana, arial, sans-serif; font-size: 12px; fill: rgb(42, 63, 95); fill-opacity: 1; white-space: pre; opacity: 1;">0</text></g><g class="xtick"><text text-anchor="middle" x="0" y="435.4" style="font-family: 'Open Sans', verdana, arial, sans-serif; font-size: 12px; fill: rgb(42, 63, 95); fill-opacity: 1; white-space: pre; opacity: 1;" transform="translate(193.82999999999998,0)">200</text></g><g class="xtick"><text text-anchor="middle" x="0" y="435.4" style="font-family: 'Open Sans', verdana, arial, sans-serif; font-size: 12px; fill: rgb(42, 63, 95); fill-opacity: 1; white-space: pre; opacity: 1;" transform="translate(307.65999999999997,0)">400</text></g><g class="xtick"><text text-anchor="middle" x="0" y="435.4" style="font-family: 'Open Sans', verdana, arial, sans-serif; font-size: 12px; fill: rgb(42, 63, 95); fill-opacity: 1; white-space: pre; opacity: 1;" transform="translate(421.49,0)">600</text></g><g class="xtick"><text text-anchor="middle" x="0" y="435.4" style="font-family: 'Open Sans', verdana, arial, sans-serif; font-size: 12px; fill: rgb(42, 63, 95); fill-opacity: 1; white-space: pre; opacity: 1;" transform="translate(535.3199999999999,0)">800</text></g></g><g class="yaxislayer-above"><g class="ytick"><text text-anchor="end" x="76.6" y="4.199999999999999" transform="translate(0,404)" style="font-family: 'Open Sans', verdana, arial, sans-serif; font-size: 12px; fill: rgb(42, 63, 95); fill-opacity: 1; white-space: pre; opacity: 1;">0</text></g><g class="ytick"><text text-anchor="end" x="76.6" y="4.199999999999999" style="font-family: 'Open Sans', verdana, arial, sans-serif; font-size: 12px; fill: rgb(42, 63, 95); fill-opacity: 1; white-space: pre; opacity: 1;" transform="translate(0,332)">5</text></g><g class="ytick"><text text-anchor="end" x="76.6" y="4.199999999999999" style="font-family: 'Open Sans', verdana, arial, sans-serif; font-size: 12px; fill: rgb(42, 63, 95); fill-opacity: 1; white-space: pre; opacity: 1;" transform="translate(0,260)">10</text></g><g class="ytick"><text text-anchor="end" x="76.6" y="4.199999999999999" style="font-family: 'Open Sans', verdana, arial, sans-serif; font-size: 12px; fill: rgb(42, 63, 95); fill-opacity: 1; white-space: pre; opacity: 1;" transform="translate(0,188)">15</text></g><g class="ytick"><text text-anchor="end" x="76.6" y="4.199999999999999" style="font-family: 'Open Sans', verdana, arial, sans-serif; font-size: 12px; fill: rgb(42, 63, 95); fill-opacity: 1; white-space: pre; opacity: 1;" transform="translate(0,116)">20</text></g></g><g class="overaxes-above"/></g></g><g class="polarlayer"/><g class="smithlayer"/><g class="ternarylayer"/><g class="geolayer"/><g class="funnelarealayer"/><g class="pielayer"/><g class="iciclelayer"/><g class="treemaplayer"/><g class="sunburstlayer"/><g class="glimages"/><defs id="topdefs-267888"><g class="clips"/><clipPath id="legend267888"><rect width="62" height="181" x="0" y="0"/></clipPath></defs><g class="layer-above"><g class="imagelayer"/><g class="shapelayer"/></g><g class="infolayer"><g class="legend" pointer-events="all" transform="translate(625.7,100)"><rect class="bg" shape-rendering="crispEdges" width="62" height="181" x="0" y="0" style="stroke: rgb(68, 68, 68); stroke-opacity: 1; fill: rgb(255, 255, 255); fill-opacity: 1; stroke-width: 0px;"/><g class="scrollbox" transform="" clip-path="url(#legend267888)"><text class="legendtitletext" text-anchor="start" x="2" y="18.2" style="font-family: 'Open Sans', verdana, arial, sans-serif; font-size: 14px; fill: rgb(42, 63, 95); fill-opacity: 1; white-space: pre;">Modules</text><g class="groups"><g class="traces" transform="translate(0,32.7)" style="opacity: 1;"><text class="legendtext" text-anchor="start" x="40" y="4.680000000000001" style="font-family: 'Open Sans', verdana, arial, sans-serif; font-size: 12px; fill: rgb(42, 63, 95); fill-opacity: 1; white-space: pre;">0</text><g class="layers" style="opacity: 1;"><g class="legendfill"/><g class="legendlines"><path class="js-line" d="M5,0h30" style="fill: none; stroke: rgb(99, 110, 250); stroke-opacity: 1; stroke-width: 2px;"/></g><g class="legendsymbols"><g class="legendpoints"/></g></g><rect class="legendtoggle" x="0" y="-9.5" width="48" height="19" style="fill: rgb(0, 0, 0); fill-opacity: 0;"/></g><g class="traces" transform="translate(0,51.7)" style="opacity: 1;"><text class="legendtext" text-anchor="start" x="40" y="4.680000000000001" style="font-family: 'Open Sans', verdana, arial, sans-serif; font-size: 12px; fill: rgb(42, 63, 95); fill-opacity: 1; white-space: pre;">1</text><g class="layers" style="opacity: 1;"><g class="legendfill"/><g class="legendlines"><path class="js-line" d="M5,0h30" style="fill: none; stroke: rgb(239, 85, 59); stroke-opacity: 1; stroke-width: 2px;"/></g><g class="legendsymbols"><g class="legendpoints"/></g></g><rect class="legendtoggle" x="0" y="-9.5" width="48" height="19" style="fill: rgb(0, 0, 0); fill-opacity: 0;"/></g><g class="traces" transform="translate(0,70.7)" style="opacity: 1;"><text class="legendtext" text-anchor="start" x="40" y="4.680000000000001" style="font-family: 'Open Sans', verdana, arial, sans-serif; font-size: 12px; fill: rgb(42, 63, 95); fill-opacity: 1; white-space: pre;">2</text><g class="layers" style="opacity: 1;"><g class="legendfill"/><g class="legendlines"><path class="js-line" d="M5,0h30" style="fill: none; stroke: rgb(0, 204, 150); stroke-opacity: 1; stroke-width: 2px;"/></g><g class="legendsymbols"><g class="legendpoints"/></g></g><rect class="legendtoggle" x="0" y="-9.5" width="48" height="19" style="fill: rgb(0, 0, 0); fill-opacity: 0;"/></g><g class="traces" transform="translate(0,89.7)" style="opacity: 1;"><text class="legendtext" text-anchor="start" x="40" y="4.680000000000001" style="font-family: 'Open Sans', verdana, arial, sans-serif; font-size: 12px; fill: rgb(42, 63, 95); fill-opacity: 1; white-space: pre;">3</text><g class="layers" style="opacity: 1;"><g class="legendfill"/><g class="legendlines"><path class="js-line" d="M5,0h30" style="fill: none; stroke: rgb(171, 99, 250); stroke-opacity: 1; stroke-width: 2px;"/></g><g class="legendsymbols"><g class="legendpoints"/></g></g><rect class="legendtoggle" x="0" y="-9.5" width="48" height="19" style="fill: rgb(0, 0, 0); fill-opacity: 0;"/></g><g class="traces" transform="translate(0,108.7)" style="opacity: 1;"><text class="legendtext" text-anchor="start" x="40" y="4.680000000000001" style="font-family: 'Open Sans', verdana, arial, sans-serif; font-size: 12px; fill: rgb(42, 63, 95); fill-opacity: 1; white-space: pre;">4</text><g class="layers" style="opacity: 1;"><g class="legendfill"/><g class="legendlines"><path class="js-line" d="M5,0h30" style="fill: none; stroke: rgb(255, 161, 90); stroke-opacity: 1; stroke-width: 2px;"/></g><g class="legendsymbols"><g class="legendpoints"/></g></g><rect class="legendtoggle" x="0" y="-9.5" width="48" height="19" style="fill: rgb(0, 0, 0); fill-opacity: 0;"/></g><g class="traces" transform="translate(0,127.7)" style="opacity: 1;"><text class="legendtext" text-anchor="start" x="40" y="4.680000000000001" style="font-family: 'Open Sans', verdana, arial, sans-serif; font-size: 12px; fill: rgb(42, 63, 95); fill-opacity: 1; white-space: pre;">5</text><g class="layers" style="opacity: 1;"><g class="legendfill"/><g class="legendlines"><path class="js-line" d="M5,0h30" style="fill: none; stroke: rgb(25, 211, 243); stroke-opacity: 1; stroke-width: 2px;"/></g><g class="legendsymbols"><g class="legendpoints"/></g></g><rect class="legendtoggle" x="0" y="-9.5" width="48" height="19" style="fill: rgb(0, 0, 0); fill-opacity: 0;"/></g><g class="traces" transform="translate(0,146.7)" style="opacity: 1;"><text class="legendtext" text-anchor="start" x="40" y="4.680000000000001" style="font-family: 'Open Sans', verdana, arial, sans-serif; font-size: 12px; fill: rgb(42, 63, 95); fill-opacity: 1; white-space: pre;">6</text><g class="layers" style="opacity: 1;"><g class="legendfill"/><g class="legendlines"><path class="js-line" d="M5,0h30" style="fill: none; stroke: rgb(255, 102, 146); stroke-opacity: 1; stroke-width: 2px;"/></g><g class="legendsymbols"><g class="legendpoints"/></g></g><rect class="legendtoggle" x="0" y="-9.5" width="48" height="19" style="fill: rgb(0, 0, 0); fill-opacity: 0;"/></g><g class="traces" transform="translate(0,165.7)" style="opacity: 1;"><text class="legendtext" text-anchor="start" x="40" y="4.680000000000001" style="font-family: 'Open Sans', verdana, arial, sans-serif; font-size: 12px; fill: rgb(42, 63, 95); fill-opacity: 1; white-space: pre;">7</text><g class="layers" style="opacity: 1;"><g class="legendfill"/><g class="legendlines"><path class="js-line" d="M5,0h30" style="fill: none; stroke: rgb(182, 232, 128); stroke-opacity: 1; stroke-width: 2px;"/></g><g class="legendsymbols"><g class="legendpoints"/></g></g><rect class="legendtoggle" x="0" y="-9.5" width="48" height="19" style="fill: rgb(0, 0, 0); fill-opacity: 0;"/></g></g></g><rect class="scrollbar" rx="20" ry="3" width="0" height="0" x="0" y="0" style="fill: rgb(128, 139, 164); fill-opacity: 1;"/></g><g class="g-gtitle"/><g class="g-xtitle"><text class="xtitle" x="347.5" y="462.70625" text-anchor="middle" style="font-family: 'Open Sans', verdana, arial, sans-serif; font-size: 14px; fill: rgb(42, 63, 95); opacity: 1; font-weight: normal; white-space: pre;">Time (ms)</text></g><g class="g-ytitle"><text class="ytitle" transform="rotate(-90,37.028125,260)" x="37.028125" y="260" text-anchor="middle" style="font-family: 'Open Sans', verdana, arial, sans-serif; font-size: 14px; fill: rgb(42, 63, 95); opacity: 1; font-weight: normal; white-space: pre;">Mean firing rate</text></g></g></svg>